<svg width="540" height="103" viewBox="0 0 540 103" fill="none" xmlns="http://www.w3.org/2000/svg">
<path d="M518.771 40.7035V28.3795H524.799C525.579 28.3795 526.291 28.5409 526.937 28.8638C527.594 29.1866 528.111 29.6542 528.49 30.2665C528.88 30.8677 529.074 31.6024 529.074 32.4708C529.074 33.3392 528.874 34.0795 528.473 34.6918C528.072 35.3041 527.538 35.7717 526.87 36.0945C526.202 36.4063 525.462 36.5621 524.649 36.5621H520.524V34.2409H523.981C524.449 34.2409 524.85 34.0906 525.183 33.79C525.529 33.4895 525.701 33.0441 525.701 32.4541C525.701 31.8418 525.529 31.4076 525.183 31.1516C524.85 30.8844 524.454 30.7508 523.998 30.7508H521.977V40.7035H518.771ZM526.636 35.0091L529.442 40.7035H525.935L523.313 35.0091H526.636ZM523.597 48.0512C521.749 48.0512 520.018 47.7061 518.404 47.0158C516.789 46.3256 515.37 45.3682 514.145 44.1436C512.921 42.9189 511.963 41.4995 511.273 39.8853C510.583 38.271 510.238 36.5398 510.238 34.6918C510.238 32.8438 510.583 31.1126 511.273 29.4983C511.963 27.8841 512.921 26.4647 514.145 25.24C515.37 24.0154 516.789 23.058 518.404 22.3678C520.018 21.6775 521.749 21.3324 523.597 21.3324C525.445 21.3324 527.176 21.6775 528.791 22.3678C530.405 23.058 531.824 24.0154 533.049 25.24C534.273 26.4647 535.231 27.8841 535.921 29.4983C536.611 31.1126 536.956 32.8438 536.956 34.6918C536.956 36.5398 536.611 38.271 535.921 39.8853C535.231 41.4995 534.273 42.9189 533.049 44.1436C531.824 45.3682 530.405 46.3256 528.791 47.0158C527.176 47.7061 525.445 48.0512 523.597 48.0512ZM523.597 44.5276C525.423 44.5276 527.076 44.0879 528.557 43.2084C530.049 42.3178 531.234 41.1321 532.114 39.6515C532.993 38.1597 533.433 36.5064 533.433 34.6918C533.433 32.8771 532.988 31.2295 532.097 29.7488C531.217 28.257 530.032 27.0714 528.54 26.1919C527.059 25.3013 525.412 24.856 523.597 24.856C521.794 24.856 520.146 25.3013 518.654 26.1919C517.162 27.0714 515.977 28.257 515.097 29.7488C514.218 31.2295 513.778 32.8771 513.778 34.6918C513.778 36.5064 514.218 38.1597 515.097 39.6515C515.977 41.1321 517.162 42.3178 518.654 43.2084C520.146 44.0879 521.794 44.5276 523.597 44.5276Z" fill="#1E1E1E"/>
<path d="M109.078 49.3296C109.078 61.5264 116.126 67.8624 124.522 67.8624C132.917 67.8624 139.966 61.5264 139.966 49.3296C139.966 37.1328 132.917 30.7968 124.522 30.7968C116.126 30.7968 109.078 37.1328 109.078 49.3296ZM154.301 49.3296C154.301 67.2288 142.104 79.0296 124.522 79.0296C106.86 79.0296 94.7424 67.2288 94.7424 49.3296C94.7424 31.4304 106.86 19.6296 124.522 19.6296C142.104 19.6296 154.301 31.4304 154.301 49.3296ZM172.192 35.3904V41.0136C174.093 37.8456 178.766 34.44 185.418 34.44C196.348 34.44 199.754 40.8552 199.754 52.4184V78H186.686V55.6656C186.686 49.5672 186.448 44.5776 180.112 44.5776C174.568 44.5776 172.192 48.3 172.192 56.1408V78H159.124V35.3904H172.192ZM219.799 20.58V78H206.731V20.58H219.799ZM232.249 91.86H228.051V82.4352H230.665C236.13 82.4352 237.159 82.1184 238.427 78.8712L238.823 77.7624L222.903 35.3904H237.239L245.079 62.0808L253.475 35.3904H267.493L250.782 78C246.505 88.8504 243.337 91.86 232.249 91.86ZM271.174 78V20.58H296.201C308.794 20.58 318.14 23.5104 318.14 35.4696C318.14 40.6968 315.684 44.736 311.328 47.4288C316.635 49.3296 320.436 53.3688 320.436 60.3384C320.436 73.1688 311.17 78 297.231 78H271.174ZM284.717 53.6064V66.5952H297.389C303.171 66.5952 306.101 64.14 306.101 60.1008C306.101 56.0616 303.171 53.6064 297.389 53.6064H284.717ZM284.717 31.9848V43.548H296.676C301.349 43.548 304.042 41.2512 304.042 37.6872C304.042 34.1232 301.349 31.9848 296.676 31.9848H284.717ZM345.998 44.2608C340.85 44.2608 336.732 47.508 336.732 56.5368C336.732 65.4864 340.692 68.892 345.998 68.892C351.305 68.892 355.265 65.4864 355.265 56.5368C355.265 47.508 351.146 44.2608 345.998 44.2608ZM345.998 34.1232C357.799 34.1232 368.57 41.0928 368.57 56.5368C368.57 71.9808 357.799 79.0296 345.998 79.0296C334.197 79.0296 323.426 71.9808 323.426 56.5368C323.426 41.0928 334.197 34.1232 345.998 34.1232ZM386.867 35.3904V41.0136C388.768 37.8456 393.441 34.44 400.094 34.44C411.023 34.44 414.429 40.8552 414.429 52.4184V78H401.361V55.6656C401.361 49.5672 401.123 44.5776 394.787 44.5776C389.243 44.5776 386.867 48.3 386.867 56.1408V78H373.799V35.3904H386.867ZM450.472 20.58H463.54V78H450.472V72.2976C447.7 76.9704 442.077 79.0296 437.404 79.0296C426.475 79.0296 418.634 70.6344 418.634 56.6952C418.634 42.756 426.475 34.44 437.404 34.44C442.077 34.44 447.7 36.4992 450.472 41.172V20.58ZM441.681 44.5776C436.454 44.5776 432.177 48.7752 432.177 56.6952C432.177 64.6152 436.454 68.892 441.681 68.892C446.829 68.892 451.106 65.4864 451.106 56.6952C451.106 47.904 446.829 44.5776 441.681 44.5776ZM509.745 47.904H497.548C496.756 44.736 493.35 43.7856 489.232 43.7856C484.797 43.7856 482.421 44.9736 482.421 46.9536C482.421 48.9336 483.926 50.0424 487.648 50.7552L495.568 52.1808C505.864 54.0816 510.695 57.0912 510.695 64.6152C510.695 74.1984 501.904 79.0296 490.103 79.0296C478.857 79.0296 470.699 74.1192 469.194 64.14H481.312C482.421 68.2584 485.747 69.5256 490.262 69.5256C494.855 69.5256 498.182 68.2584 498.182 65.724C498.182 63.8232 496.439 62.6352 491.529 61.764L483.926 60.4968C475.689 59.1504 470.066 54.9528 470.066 47.4288C470.066 38.8752 479.015 34.2816 489.549 34.2816C499.29 34.2816 508.082 38.2416 509.745 47.904Z" fill="#1E1E1E"/>
<g clip-path="url(#clip0_1_8)">
<path d="M51.1875 65.625C51.1875 79.087 40.2745 90 26.8125 90H24.375C10.913 90 0 79.087 0 65.625H51.1875ZM78 65.625C78 79.087 67.087 90 53.625 90V65.625H78ZM25.5938 12C39.7288 12 51.1875 23.4587 51.1875 37.5938C51.1875 51.7288 39.7288 63.1875 25.5938 63.1875C11.4587 63.1875 0 51.7288 0 37.5938C0 23.4587 11.4587 12 25.5938 12ZM53.625 12C67.087 12 78 22.913 78 36.375V38.8125C78 52.2745 67.087 63.1875 53.625 63.1875V12Z" fill="#175ECA"/>
</g>
<defs>
<clipPath id="clip0_1_8">
<rect width="78" height="78" fill="white" transform="translate(0 12)"/>
</clipPath>
</defs>
</svg>
